<?xml version="1.0" encoding="UTF-8" standalone="no"?>
<svg width="100" height="100" viewBox="0 0 100 100" fill="none" xmlns="http://www.w3.org/2000/svg">
  <circle cx="50" cy="50" r="48" fill="#2271B1" stroke="#F0F0F1" stroke-width="2"/>
  <path d="M58.9286 23C54.4286 23 50 27.1429 50 32.4286C50 39.8571 57.1429 44.8571 58.2143 51C58.2143 45.9286 62.6429 42.1429 62.6429 35.7857C62.6429 29.4286 59.4643 23 58.9286 23Z" fill="white"/>
  <path d="M61.0714 47C61.0714 47 52.3571 39.3571 42.5 39.3571C31.0714 39.3571 22.3571 48.0714 22.3571 59.5C22.3571 70.9286 32.1429 80.7143 42.5 80.7143C54.4286 80.7143 62.1429 70.9286 62.1429 59.5C62.1429 58.4286 62.1429 47 61.0714 47Z" fill="white"/>
  <path d="M70.3214 65.3214C72.5 65.3214 79.7143 65.3214 79.7143 54.5C79.7143 48.0714 69.9286 49.1429 68.8571 33.5714C66.1429 44.8571 70.3214 54.5 70.3214 65.3214Z" fill="white"/>
  <path d="M76.4643 67.5C68.8571 67.5 66.1429 72.0714 66.1429 77.4286C66.1429 82.7857 70.3214 86.4643 76.4643 86.4643C83.6786 86.4643 87.8571 82.7857 87.8571 77.4286C87.3214 72.0714 84.0714 67.5 76.4643 67.5Z" fill="white"/>
  <path d="M36.5 50C36.5 50 34.5 55 39 55C43.5 55 44 50 44 50" stroke="white" stroke-width="2" stroke-linecap="round"/>
  <path d="M36.5 68C36.5 68 34.5 72 39 72C43.5 72 44 68 44 68" stroke="white" stroke-width="2" stroke-linecap="round"/>
  <path fill-rule="evenodd" clip-rule="evenodd" d="M52.5 20L90 57.5L77.5 90H22.5L10 57.5L47.5 20L52.5 20Z" stroke="white" stroke-width="2"/>
</svg>